<svg width="29" height="29" viewBox="0 0 29 29" fill="none" xmlns="http://www.w3.org/2000/svg">
<g clip-path="url(#clip0_20_17)">
<path d="M21.8225 3.625C22.4046 3.62505 22.9671 3.83518 23.4067 4.21679C23.8462 4.59839 24.1332 5.12582 24.215 5.70212L24.2356 5.89062L25.2929 22.8073C25.3328 23.442 25.1209 24.067 24.7031 24.5465C24.2853 25.026 23.6953 25.3216 23.0611 25.369L22.8798 25.375H6.12144C5.48549 25.375 4.87516 25.1244 4.42277 24.6775C3.97038 24.2305 3.7124 23.6232 3.70477 22.9873L3.7084 22.8073L4.76569 5.89062C4.80205 5.3095 5.047 4.76104 5.45549 4.34612C5.86398 3.93119 6.40854 3.67769 6.98902 3.63225L7.17752 3.625H21.8225ZM21.8225 6.04167H7.17752L6.12023 22.9583H22.8798L21.8237 6.04167H21.8225ZM18.125 8.45833C18.4455 8.45833 18.7528 8.58564 18.9794 8.81225C19.206 9.03885 19.3334 9.3462 19.3334 9.66667C19.3334 10.9485 18.8241 12.1779 17.9177 13.0843C17.0113 13.9908 15.7819 14.5 14.5 14.5C13.2181 14.5 11.9888 13.9908 11.0823 13.0843C10.1759 12.1779 9.66669 10.9485 9.66669 9.66667C9.66669 9.3462 9.794 9.03885 10.0206 8.81225C10.2472 8.58564 10.5546 8.45833 10.875 8.45833C11.1955 8.45833 11.5028 8.58564 11.7294 8.81225C11.956 9.03885 12.0834 9.3462 12.0834 9.66667C12.0806 10.2938 12.3216 10.8974 12.7556 11.3501C13.1897 11.8027 13.7827 12.0689 14.4093 12.0924C15.036 12.116 15.6473 11.895 16.114 11.4762C16.5808 11.0573 16.8664 10.4735 16.9106 9.84792L16.9167 9.66667C16.9167 9.3462 17.044 9.03885 17.2706 8.81225C17.4972 8.58564 17.8046 8.45833 18.125 8.45833Z" fill="#1B262C"/>
</g>
<defs>
<clipPath id="clip0_20_17">
<rect width="29" height="29" fill="white"/>
</clipPath>
</defs>
</svg>
