<svg xmlns="http://www.w3.org/2000/svg" version="1.1" xmlns:xlink="http://www.w3.org/1999/xlink" xmlns:svgjs="http://svgjs.com/svgjs" width="1440" height="900" preserveAspectRatio="none" viewBox="0 0 1440 900"><g mask="url(&quot;#SvgjsMask1112&quot;)" fill="none"><rect width="1440" height="900" x="0" y="0" fill="rgba(187, 225, 250, 1)"></rect><path d="M493.575,428.304C563.412,429.258,622.741,379.99,655.013,318.049C684.893,260.699,679.354,192.213,645.186,137.31C612.944,85.5,554.464,62.676,493.575,58.638C422.638,53.933,339.349,53.724,302.612,114.59C265.217,176.545,301.976,251.924,339.603,313.738C375.255,372.306,425.015,427.367,493.575,428.304" fill="rgba(15, 76, 117, 0.35)" class="triangle-float3"></path><path d="M712.62 869.28 a290.44 290.44 0 1 0 580.88 0 a290.44 290.44 0 1 0 -580.88 0z" fill="rgba(15, 76, 117, 0.35)" class="triangle-float1"></path><path d="M-150.69 825.6 a160.01 160.01 0 1 0 320.02 0 a160.01 160.01 0 1 0 -320.02 0z" fill="rgba(15, 76, 117, 0.35)" class="triangle-float2"></path><path d="M546.69 737.45 a263.57 263.57 0 1 0 527.14 0 a263.57 263.57 0 1 0 -527.14 0z" fill="rgba(15, 76, 117, 0.35)" class="triangle-float2"></path><path d="M1048.17 508.9 a259.4 259.4 0 1 0 518.8 0 a259.4 259.4 0 1 0 -518.8 0z" fill="rgba(15, 76, 117, 0.35)" class="triangle-float1"></path><path d="M40.973,739.63C85.737,739.658,122.022,706.23,142.756,666.557C161.914,629.899,161.971,585.645,139.646,550.825C118.889,518.451,79.429,507.545,40.973,507.808C3.077,508.068,-34.95,520.246,-55.385,552.161C-77.422,586.578,-79.275,630.084,-60.592,666.432C-40.145,706.212,-3.754,739.602,40.973,739.63" fill="rgba(15, 76, 117, 0.35)" class="triangle-float2"></path></g><defs><mask id="SvgjsMask1112"><rect width="1440" height="900" fill="#ffffff"></rect></mask><style>
            @keyframes float1 {
                0%{transform: translate(0, 0)}
                50%{transform: translate(-10px, 0)}
                100%{transform: translate(0, 0)}
            }

            .triangle-float1 {
                animation: float1 5s infinite;
            }

            @keyframes float2 {
                0%{transform: translate(0, 0)}
                50%{transform: translate(-5px, -5px)}
                100%{transform: translate(0, 0)}
            }

            .triangle-float2 {
                animation: float2 4s infinite;
            }

            @keyframes float3 {
                0%{transform: translate(0, 0)}
                50%{transform: translate(0, -10px)}
                100%{transform: translate(0, 0)}
            }

            .triangle-float3 {
                animation: float3 6s infinite;
            }
        </style></defs></svg>