<svg width="27" height="27" viewBox="0 0 27 27" fill="none" xmlns="http://www.w3.org/2000/svg">
<path d="M24.3559 23.2031C24.2818 23.3314 24.1753 23.4379 24.047 23.512C23.9187 23.5861 23.7731 23.625 23.625 23.625H3.375C3.22696 23.6248 3.08157 23.5858 2.95343 23.5116C2.82528 23.4375 2.71889 23.331 2.64494 23.2027C2.57098 23.0745 2.53207 22.9291 2.53211 22.781C2.53215 22.633 2.57114 22.4876 2.64515 22.3594C4.25144 19.5824 6.72679 17.5911 9.61558 16.6472C8.18666 15.7965 7.07647 14.5003 6.45551 12.9577C5.83456 11.415 5.73717 9.71114 6.17829 8.10776C6.61942 6.50438 7.57468 5.09013 8.89737 4.08219C10.2201 3.07426 11.837 2.52838 13.5 2.52838C15.163 2.52838 16.7799 3.07426 18.1026 4.08219C19.4253 5.09013 20.3806 6.50438 20.8217 8.10776C21.2628 9.71114 21.1654 11.415 20.5445 12.9577C19.9235 14.5003 18.8133 15.7965 17.3844 16.6472C20.2732 17.5911 22.7486 19.5824 24.3548 22.3594C24.4291 22.4875 24.4682 22.633 24.4684 22.7811C24.4686 22.9292 24.4298 23.0748 24.3559 23.2031Z" fill="#1E1E1E"/>
</svg>
