<svg width="137" height="74" viewBox="0 0 137 74" fill="none" xmlns="http://www.w3.org/2000/svg">
<path d="M135.203 15.1471C140.203 24.8711 124.003 44.3191 111.003 53.3886C97.9032 62.3646 88.0032 60.9621 70.4032 65.0761C52.8032 69.1901 27.5032 78.9141 13.1032 69.0966C-1.2968 59.3726 -4.8968 30.2006 7.7032 16.2691C20.3032 2.43112 49.2032 3.83362 76.6032 4.58162C104.103 5.32962 130.203 5.42312 135.203 15.1471Z" fill="#FA4D56"/>
<path d="M61.7961 52.4091V49.9929C61.7961 48.1584 62.1839 46.473 62.9595 44.9368C63.75 43.3857 64.891 42.1477 66.3824 41.223C67.8888 40.2834 69.7233 39.8136 71.886 39.8136C74.0785 39.8136 75.9204 40.2759 77.4119 41.2006C78.9183 42.1254 80.0518 43.3633 80.8125 44.9144C81.588 46.4506 81.9758 48.1435 81.9758 49.9929V52.4091C81.9758 54.2436 81.588 55.9364 80.8125 57.4876C80.0369 59.0238 78.8959 60.2543 77.3895 61.179C75.8831 62.1186 74.0486 62.5884 71.886 62.5884C69.6935 62.5884 67.8515 62.1186 66.3601 61.179C64.8686 60.2543 63.7351 59.0238 62.9595 57.4876C62.1839 55.9364 61.7961 54.2436 61.7961 52.4091ZM68.3064 49.9929V52.4091C68.3064 53.468 68.56 54.4673 69.0671 55.407C69.5891 56.3466 70.5287 56.8164 71.886 56.8164C73.2432 56.8164 74.1679 56.354 74.6601 55.4293C75.1672 54.5046 75.4208 53.4979 75.4208 52.4091V49.9929C75.4208 48.9041 75.1822 47.8899 74.7049 46.9503C74.2276 46.0107 73.288 45.5408 71.886 45.5408C70.5437 45.5408 69.6115 46.0107 69.0895 46.9503C68.5674 47.8899 68.3064 48.9041 68.3064 49.9929ZM38.283 26.1889V23.7727C38.283 21.9233 38.6782 20.2305 39.4687 18.6942C40.2592 17.1431 41.4002 15.9052 42.8917 14.9805C44.3981 14.0558 46.2177 13.5934 48.3505 13.5934C50.5579 13.5934 52.4073 14.0558 53.8988 14.9805C55.3902 15.9052 56.5238 17.1431 57.2993 18.6942C58.0749 20.2305 58.4627 21.9233 58.4627 23.7727V26.1889C58.4627 28.0384 58.0675 29.7312 57.277 31.2674C56.5014 32.8036 55.3604 34.0341 53.854 34.9588C52.3625 35.8686 50.528 36.3235 48.3505 36.3235C46.1729 36.3235 44.3309 35.8612 42.8246 34.9364C41.3331 33.9968 40.1996 32.7663 39.424 31.245C38.6633 29.7088 38.283 28.0234 38.283 26.1889ZM44.838 23.7727V26.1889C44.838 27.2777 45.0916 28.2844 45.5987 29.2092C46.1207 30.1339 47.038 30.5962 48.3505 30.5962C49.7226 30.5962 50.6548 30.1339 51.147 29.2092C51.6541 28.2844 51.9076 27.2777 51.9076 26.1889V23.7727C51.9076 22.6839 51.669 21.6697 51.1917 20.7301C50.7145 19.7905 49.7674 19.3207 48.3505 19.3207C47.0231 19.3207 46.1058 19.7979 45.5987 20.7525C45.0916 21.707 44.838 22.7138 44.838 23.7727ZM41.2361 61L72.7361 15.1818H78.5976L47.0976 61H41.2361Z" fill="white"/>
</svg>
