<svg width="27" height="27" viewBox="0 0 27 27" fill="none" xmlns="http://www.w3.org/2000/svg">
<path d="M24.7198 22.1484C23.2738 19.6105 21.0158 17.6331 18.3094 16.5343C19.6553 15.5249 20.6494 14.1176 21.151 12.5118C21.6527 10.906 21.6363 9.18307 21.1043 7.58706C20.5723 5.99106 19.5516 4.60289 18.1868 3.61921C16.822 2.63553 15.1823 2.1062 13.5 2.1062C11.8177 2.1062 10.178 2.63553 8.81319 3.61921C7.44841 4.60289 6.42772 5.99106 5.89572 7.58706C5.36372 9.18307 5.34737 10.906 5.84899 12.5118C6.35061 14.1176 7.34476 15.5249 8.69063 16.5343C5.98422 17.6331 3.72627 19.6105 2.28024 22.1484C2.19064 22.2925 2.13092 22.4531 2.10464 22.6207C2.07835 22.7883 2.08603 22.9595 2.12723 23.1241C2.16843 23.2887 2.24229 23.4433 2.34444 23.5788C2.44659 23.7143 2.57493 23.8278 2.72183 23.9127C2.86874 23.9976 3.03121 24.052 3.19959 24.0729C3.36797 24.0937 3.53882 24.0805 3.70198 24.0339C3.86514 23.9874 4.01729 23.9086 4.14937 23.8021C4.28145 23.6956 4.39077 23.5636 4.47083 23.4141C6.38192 20.1108 9.75692 18.1406 13.5 18.1406C17.2431 18.1406 20.6181 20.1118 22.5292 23.4141C22.7027 23.693 22.9779 23.8936 23.2966 23.9734C23.6153 24.0532 23.9526 24.0059 24.2371 23.8415C24.5216 23.6772 24.731 23.4086 24.8211 23.0927C24.9111 22.7767 24.8748 22.4381 24.7198 22.1484ZM8.01563 10.125C8.01563 9.04028 8.33729 7.97994 8.93992 7.07803C9.54255 6.17613 10.3991 5.47319 11.4012 5.05809C12.4034 4.64299 13.5061 4.53438 14.57 4.746C15.6338 4.95761 16.611 5.47995 17.378 6.24695C18.1451 7.01395 18.6674 7.99118 18.879 9.05504C19.0906 10.1189 18.982 11.2216 18.5669 12.2238C18.1518 13.2259 17.4489 14.0824 16.547 14.6851C15.6451 15.2877 14.5847 15.6094 13.5 15.6094C12.046 15.6077 10.652 15.0293 9.62382 14.0012C8.59566 12.973 8.01731 11.579 8.01563 10.125Z" fill="#1E1E1E"/>
</svg>
